<svg width="149" height="67" viewBox="0 0 149 67" fill="none" xmlns="http://www.w3.org/2000/svg">
<path d="M49.4316 63.5997V18.5337H59.6798V63.5997H49.4316Z" fill="#FF5003"/>
<path d="M74.9067 20.1205C74.3655 19.5709 73.7204 19.1345 73.0089 18.8367C72.2974 18.5388 71.5338 18.3856 70.7624 18.3858C69.9906 18.3823 69.226 18.534 68.514 18.832C67.8021 19.13 67.1573 19.5682 66.6182 20.1205C66.0602 20.6569 65.6163 21.3005 65.313 22.0126C65.0098 22.7247 64.8535 23.4907 64.8535 24.2647C64.8535 25.0387 65.0098 25.8048 65.313 26.5169C65.6163 27.229 66.0602 27.8726 66.6182 28.409C67.15 28.9738 67.7924 29.423 68.5054 29.7286C69.2184 30.0341 69.9867 30.1896 70.7624 30.1851C72.325 30.1607 73.8167 29.5291 74.9218 28.4241C76.0268 27.319 76.6584 25.8273 76.6828 24.2647C76.6873 23.489 76.5318 22.7207 76.2263 22.0077C75.9207 21.2947 75.4715 20.6523 74.9067 20.1205ZM74.2614 27.817C73.5557 28.5094 72.6619 28.979 71.6913 29.1671C70.7207 29.3552 69.7161 29.2536 68.8029 28.8749C67.8896 28.4962 67.1079 27.8572 66.5552 27.0374C66.0025 26.2177 65.7032 25.2534 65.6946 24.2647C65.6891 23.6057 65.8198 22.9525 66.0785 22.3464C66.3373 21.7402 66.7186 21.194 67.1984 20.7421C68.1353 19.8061 69.4055 19.2803 70.7299 19.2803C72.0543 19.2803 73.3245 19.8061 74.2614 20.7421C74.7466 21.1914 75.1333 21.7364 75.3973 22.3427C75.6612 22.949 75.7965 23.6035 75.7948 24.2647C75.7942 24.93 75.658 25.5882 75.3943 26.199C75.1307 26.8097 74.7452 27.3603 74.2614 27.817ZM74.066 20.9612C73.1786 20.079 71.9782 19.5839 70.7269 19.5839C69.4757 19.5839 68.2752 20.079 67.3878 20.9612C66.9375 21.3871 66.58 21.9014 66.3375 22.4719C66.0951 23.0424 65.9729 23.6568 65.9788 24.2766C65.9751 24.8987 66.0981 25.5151 66.3403 26.0882C66.5826 26.6612 66.939 27.1789 67.3878 27.6098C67.8239 28.0554 68.3455 28.4083 68.9213 28.6473C69.4971 28.8864 70.1153 29.0067 70.7388 29.0011C71.9897 28.9842 73.1846 28.4798 74.0692 27.5952C74.9538 26.7106 75.4582 25.5157 75.4751 24.2647C75.4794 23.6486 75.3565 23.0383 75.1141 22.4718C74.8716 21.9054 74.5148 21.3952 74.066 20.973V20.9612ZM69.7323 25.4488C69.875 25.608 70.0506 25.7343 70.2468 25.8191C70.443 25.9039 70.6553 25.9453 70.869 25.9402C71.0815 25.9421 71.2923 25.9012 71.4886 25.8198C71.6849 25.7384 71.8628 25.6183 72.0116 25.4666L72.6984 26.1119C72.3147 26.5388 71.784 26.8052 71.2124 26.8579V27.6927H70.2592V26.7987C69.8152 26.6927 69.4076 26.4701 69.0785 26.1539C68.7493 25.8377 68.5105 25.4394 68.3868 25C68.2631 24.5607 68.2589 24.0963 68.3747 23.6548C68.4905 23.2133 68.7221 22.8107 69.0455 22.4886C69.3835 22.163 69.8026 21.934 70.2592 21.8255V20.9375H71.2124V21.7723C71.7746 21.8359 72.2985 22.0885 72.6984 22.4886L72.0116 23.1754C71.7352 22.8925 71.3591 22.7289 70.9637 22.7195L70.7743 22.6603C70.3733 22.7142 70 22.8946 69.7086 23.1754C69.5569 23.3205 69.4365 23.4952 69.3551 23.6887C69.2736 23.8822 69.2327 24.0903 69.235 24.3003C69.2305 24.5162 69.2727 24.7306 69.3585 24.9287C69.4443 25.1269 69.5718 25.3043 69.7323 25.4488Z" fill="#FF5003"/>
<g opacity="0.5">
<path d="M68.6907 8.06643C68.2803 7.64983 67.7908 7.31947 67.251 7.09477C66.7111 6.87008 66.1317 6.75559 65.547 6.75803C64.9617 6.75221 64.3814 6.86516 63.841 7.09005C63.3007 7.31494 62.8115 7.6471 62.4032 8.06643C61.976 8.46397 61.6363 8.94624 61.4059 9.48244C61.1756 10.0186 61.0595 10.597 61.0652 11.1806C61.0583 11.7687 61.1737 12.3518 61.404 12.893C61.6343 13.4342 61.9746 13.9216 62.4032 14.3243C62.8071 14.751 63.2949 15.0896 63.8359 15.3188C64.3769 15.5481 64.9594 15.663 65.547 15.6564C66.7277 15.6395 67.8551 15.1621 68.6889 14.326C69.5228 13.49 69.9972 12.3613 70.0109 11.1806C70.0157 10.5988 69.901 10.0222 69.6739 9.48652C69.4468 8.95086 69.1122 8.46752 68.6907 8.06643ZM68.1993 13.8625C67.8524 14.2177 67.4381 14.4999 66.9805 14.6926C66.523 14.8853 66.0316 14.9845 65.5351 14.9845C65.0387 14.9845 64.5472 14.8853 64.0897 14.6926C63.6322 14.4999 63.2178 14.2177 62.871 13.8625C62.5116 13.5168 62.2257 13.1021 62.0304 12.6433C61.8351 12.1845 61.7343 11.691 61.7342 11.1924C61.7305 10.6958 61.8296 10.2038 62.0252 9.74734C62.2208 9.29088 62.5088 8.87984 62.871 8.54006C63.2199 8.1885 63.6349 7.90947 64.0922 7.71906C64.5494 7.52864 65.0398 7.43061 65.5351 7.43061C66.0304 7.43061 66.5209 7.52864 66.9781 7.71906C67.4354 7.90947 67.8504 8.1885 68.1993 8.54006C68.5615 8.87984 68.8494 9.29088 69.0451 9.74734C69.2407 10.2038 69.3398 10.6958 69.336 11.1924C69.3369 11.6912 69.2367 12.185 69.0413 12.6439C68.8459 13.1029 68.5595 13.5174 68.1993 13.8625ZM68.0572 8.69399C67.7271 8.36194 67.3346 8.09843 66.9023 7.91861C66.4699 7.7388 66.0063 7.64623 65.5381 7.64623C65.0699 7.64623 64.6062 7.7388 64.1739 7.91861C63.7416 8.09843 63.3491 8.36194 63.019 8.69399C62.6804 9.01551 62.4117 9.40322 62.2294 9.83302C62.047 10.2628 61.9551 10.7255 61.9592 11.1924C61.9555 11.6618 62.0475 12.1271 62.2297 12.5597C62.4119 12.9923 62.6805 13.3833 63.019 13.7086C63.3491 14.0406 63.7416 14.3041 64.1739 14.4839C64.6062 14.6638 65.0699 14.7563 65.5381 14.7563C66.0063 14.7563 66.4699 14.6638 66.9023 14.4839C67.3346 14.3041 67.7271 14.0406 68.0572 13.7086C68.3965 13.3836 68.6659 12.9928 68.8492 12.5602C69.0324 12.1276 69.1255 11.6622 69.1229 11.1924C69.1277 10.7249 69.0354 10.2615 68.852 9.83146C68.6686 9.40142 68.3979 9.01411 68.0572 8.69399ZM64.7832 12.0568C64.8928 12.1765 65.0265 12.2716 65.1755 12.3359C65.3244 12.4002 65.4854 12.4322 65.6476 12.4298C65.8077 12.4307 65.9663 12.3992 66.1138 12.3371C66.2614 12.2751 66.3948 12.1837 66.5061 12.0686L67.0211 12.56C66.7317 12.88 66.332 13.0787 65.9022 13.1165V13.75H65.1858V13.0869C64.8372 13.0059 64.5189 12.8273 64.2682 12.5718C64.0229 12.3299 63.8471 12.0266 63.7592 11.6935C63.6712 11.3605 63.6742 11.0099 63.768 10.6784C63.8617 10.3469 64.0428 10.0467 64.2922 9.80906C64.5416 9.57143 64.8502 9.40511 65.1858 9.32747V8.66439H65.9022V9.29787C66.3255 9.34085 66.7209 9.52913 67.0211 9.83071L66.5061 10.3458C66.2986 10.1327 66.0159 10.0095 65.7187 10.0024L65.5766 9.96096C65.2732 9.99734 64.9902 10.1326 64.7714 10.3458C64.6558 10.4541 64.564 10.5854 64.5018 10.7311C64.4396 10.8769 64.4085 11.034 64.4103 11.1924C64.41 11.3543 64.443 11.5146 64.5071 11.6632C64.5713 11.8119 64.6653 11.9459 64.7832 12.0568Z" fill="#FF5003"/>
</g>
<g opacity="0.1">
<path d="M76.2921 1.02709C75.6271 0.369081 74.7293 0 73.7937 0C72.8582 0 71.9604 0.369081 71.2953 1.02709C70.958 1.34457 70.6898 1.72819 70.5075 2.15399C70.3251 2.57979 70.2326 3.03862 70.2356 3.50181C70.2304 3.96882 70.3218 4.43186 70.5042 4.86181C70.6866 5.29177 70.9559 5.67936 71.2953 6.00022C71.6194 6.33539 72.0076 6.60193 72.4368 6.78397C72.866 6.966 73.3275 7.05981 73.7937 7.05981C74.2599 7.05981 74.7214 6.966 75.1506 6.78397C75.5798 6.60193 75.968 6.33539 76.2921 6.00022C76.6291 5.67811 76.896 5.29002 77.0763 4.86017C77.2566 4.43031 77.3464 3.96791 77.34 3.50181C77.3438 3.03959 77.2528 2.5815 77.0726 2.15585C76.8923 1.73019 76.6267 1.34603 76.2921 1.02709ZM75.9014 5.63907C75.6258 5.92012 75.2969 6.14338 74.934 6.29579C74.5711 6.4482 74.1814 6.5267 73.7878 6.5267C73.3942 6.5267 73.0045 6.4482 72.6416 6.29579C72.2787 6.14338 71.9498 5.92012 71.6742 5.63907C71.3931 5.3666 71.1688 5.04107 71.0143 4.68132C70.8598 4.32157 70.7783 3.93475 70.7743 3.54326C70.7641 3.14571 70.8367 2.75038 70.9875 2.38242C71.1384 2.01447 71.3642 1.68194 71.6505 1.406C71.9261 1.12495 72.255 0.901694 72.6179 0.749283C72.9808 0.596872 73.3705 0.51837 73.7641 0.51837C74.1577 0.51837 74.5474 0.596872 74.9103 0.749283C75.2732 0.901694 75.6021 1.12495 75.8777 1.406C76.1746 1.67654 76.4109 2.00683 76.5711 2.37518C76.7313 2.74353 76.8118 3.1416 76.8072 3.54326C76.8045 3.93549 76.7229 4.32316 76.5672 4.68321C76.4116 5.04326 76.1852 5.36833 75.9014 5.63907ZM75.7948 1.53032C75.5328 1.26612 75.2211 1.05641 74.8776 0.913292C74.5342 0.770178 74.1658 0.696495 73.7937 0.696495C73.4216 0.696495 73.0532 0.770178 72.7098 0.913292C72.3663 1.05641 72.0546 1.26612 71.7926 1.53032C71.5189 1.78853 71.3018 2.10078 71.155 2.44728C71.0083 2.79379 70.9351 3.16699 70.9401 3.54326C70.9389 3.9158 71.0133 4.28471 71.1588 4.62766C71.3043 4.97061 71.5179 5.28045 71.7867 5.53843C72.0466 5.80626 72.3577 6.01919 72.7014 6.16459C73.0451 6.31 73.4146 6.38492 73.7878 6.38492C74.161 6.38492 74.5304 6.31 74.8742 6.16459C75.2179 6.01919 75.529 5.80626 75.7889 5.53843C76.0588 5.2813 76.2731 4.97162 76.4187 4.62848C76.5643 4.28534 76.6381 3.91601 76.6355 3.54326C76.6446 3.16751 76.5744 2.79406 76.4296 2.44724C76.2847 2.10041 76.0684 1.78799 75.7948 1.53032ZM73.1898 4.20042C73.2761 4.29642 73.3822 4.37259 73.5008 4.42369C73.6193 4.47479 73.7475 4.49961 73.8766 4.49644C74.0034 4.49736 74.129 4.47266 74.246 4.42383C74.363 4.375 74.4689 4.30303 74.5574 4.21226L74.9719 4.59708C74.7419 4.85437 74.4218 5.01336 74.0779 5.04111V5.54435H73.4859V5.02335C73.2089 4.95668 72.9564 4.81301 72.7576 4.60893C72.5611 4.41773 72.4199 4.17697 72.3489 3.91211C72.2779 3.64725 72.2798 3.36814 72.3544 3.10428C72.429 2.84042 72.5736 2.60162 72.7727 2.41315C72.9719 2.22467 73.2183 2.09352 73.4859 2.03356V1.50664H74.0779V2.00988C74.4143 2.04666 74.7289 2.19458 74.9719 2.43022L74.5574 2.84465C74.3929 2.67315 74.1675 2.57322 73.9299 2.56639H73.8174C73.5755 2.59341 73.35 2.70199 73.178 2.87425C73.0861 2.95941 73.0133 3.06305 72.9643 3.17835C72.9153 3.29365 72.8913 3.41801 72.8938 3.54326C72.8948 3.66734 72.9217 3.78985 72.9727 3.90299C73.0236 4.01613 73.0976 4.11742 73.1898 4.20042Z" fill="#FF5003"/>
</g>
<g opacity="0.3">
<path d="M80.3651 11.3582C80.0885 11.0792 79.7592 10.8581 79.3964 10.7077C79.0335 10.5572 78.6443 10.4805 78.2515 10.482C77.8594 10.4793 77.4707 10.5555 77.1087 10.706C76.7466 10.8565 76.4185 11.0783 76.1438 11.3582C75.8598 11.6296 75.6337 11.9558 75.4792 12.317C75.3248 12.6783 75.2451 13.0671 75.2451 13.46C75.2451 13.8528 75.3248 14.2416 75.4792 14.6029C75.6337 14.9641 75.8598 15.2903 76.1438 15.5617C76.4139 15.8492 76.7406 16.0776 77.1034 16.2325C77.4661 16.3874 77.8571 16.4654 78.2515 16.4616C78.8492 16.4762 79.4373 16.3096 79.9384 15.9835C80.4396 15.6575 80.8302 15.1873 81.059 14.635C81.2878 14.0826 81.3439 13.4739 81.22 12.889C81.0962 12.3041 80.7981 11.7704 80.3651 11.3582ZM80.0335 15.2538C79.8031 15.4919 79.5271 15.6812 79.2219 15.8104C78.9168 15.9396 78.5888 16.006 78.2574 16.0057C77.5836 15.9996 76.939 15.7296 76.462 15.2536C75.9849 14.7777 75.7134 14.1338 75.7057 13.46C75.7042 13.1279 75.7706 12.799 75.9009 12.4935C76.0312 12.1881 76.2227 11.9125 76.4635 11.6838C76.6954 11.4484 76.9719 11.2617 77.2769 11.1346C77.5819 11.0075 77.9092 10.9426 78.2397 10.9438C78.5703 10.9413 78.898 11.0056 79.2032 11.1327C79.5084 11.2599 79.7847 11.4473 80.0158 11.6838C80.2585 11.9113 80.4517 12.1865 80.5831 12.4922C80.7145 12.7978 80.7814 13.1273 80.7795 13.46C80.7829 13.7939 80.7186 14.125 80.5904 14.4334C80.4622 14.7417 80.2727 15.0208 80.0335 15.2538ZM79.9388 11.7845C79.7184 11.5598 79.4553 11.3814 79.1651 11.2596C78.8749 11.1377 78.5633 11.075 78.2485 11.075C77.9338 11.075 77.6222 11.1377 77.332 11.2596C77.0417 11.3814 76.7787 11.5598 76.5583 11.7845C76.3298 11.9993 76.1482 12.259 76.0249 12.5473C75.9016 12.8357 75.8393 13.1464 75.8419 13.46C75.8725 14.0776 76.1395 14.6598 76.5874 15.0861C77.0354 15.5124 77.6301 15.7502 78.2485 15.7502C78.8669 15.7502 79.4617 15.5124 79.9096 15.0861C80.3576 14.6598 80.6245 14.0776 80.6552 13.46C80.6581 13.1463 80.596 12.8355 80.4727 12.5471C80.3494 12.2587 80.1676 11.999 79.9388 11.7845ZM77.7423 14.0402C77.8173 14.1218 77.909 14.1863 78.0112 14.2292C78.1134 14.2721 78.2236 14.2924 78.3344 14.2888C78.4442 14.2932 78.5536 14.2743 78.6557 14.2335C78.7577 14.1927 78.8499 14.1309 78.9264 14.052L79.2757 14.3776C79.0819 14.5933 78.8129 14.7267 78.5238 14.7506V15.1769H78.0384V14.7328C77.8136 14.674 77.609 14.5553 77.4463 14.3895C77.2004 14.1426 77.0621 13.8084 77.0615 13.46C77.0642 13.1171 77.2025 12.7893 77.4463 12.5482C77.6093 12.384 77.814 12.2673 78.0384 12.2108V11.7667H78.5238V12.1871C78.8087 12.2168 79.0744 12.3444 79.2757 12.5482L78.9264 12.8916C78.7869 12.7499 78.5982 12.6673 78.3995 12.6607H78.2989C78.0955 12.6858 77.9061 12.7774 77.7601 12.9212C77.6805 12.9974 77.6177 13.0895 77.5759 13.1915C77.5341 13.2934 77.5141 13.4031 77.5174 13.5132C77.5224 13.7112 77.6028 13.8997 77.7423 14.0402Z" fill="#FF5003"/>
</g>
<path d="M75.8541 32.7307H65.606V63.5996H75.8541V32.7307Z" fill="#FF5003"/>
<path d="M100.608 31.8665C102.138 31.8167 103.66 32.0971 105.072 32.6886C106.484 33.2801 107.752 34.1689 108.79 35.2944C110.909 37.5797 111.969 40.8635 111.969 45.1459V63.5998H101.721V46.4306C101.721 44.8242 101.298 43.6106 100.454 42.7896C100.005 42.3735 99.4787 42.0508 98.9044 41.8404C98.3301 41.6299 97.7196 41.536 97.1086 41.5641C96.4182 41.5221 95.7268 41.63 95.082 41.8804C94.4371 42.1308 93.8541 42.5177 93.3729 43.0146C92.4888 43.9776 92.0467 45.359 92.0467 47.1588V63.5761H81.7808V32.7309H92.0289V35.8213C93.884 33.1887 96.7436 31.8704 100.608 31.8665Z" fill="#FF5003"/>
<path d="M148.024 63.5994H136.544L127.776 50.4503V63.5994H117.528V20.3806H127.776V45.637L135.739 32.7305H147.58L137.219 48.165L148.024 63.5994Z" fill="#FF5003"/>
<path d="M34.2041 45.2346L44.6062 50.2551C42.527 53.3093 39.6779 55.7601 36.3473 57.3596C35.2859 57.8909 34.1855 58.3402 33.0555 58.7035L33.2095 65.9086L25.1281 66.027L25.0038 60.1066H24.6959C23.216 60.1371 21.7358 60.0579 20.2675 59.8698L20.4037 66.1158L12.2987 66.2342L12.1151 57.5431C10.3537 56.6916 8.7067 55.6215 7.21305 54.3579C2.54778 50.4031 0.148054 45.4379 0.0138588 39.4622C-0.0949743 36.621 0.438314 33.7918 1.57404 31.1852C2.70977 28.5785 4.41869 26.2616 6.57365 24.4067C8.00613 23.1027 9.59747 21.9848 11.31 21.0794L11.1442 12.3883L19.2492 12.2699L19.3854 18.5159C20.8444 18.2845 22.3188 18.1638 23.796 18.1548H24.1039L23.9737 12.2344L32.0609 12.116L32.2148 19.3566C33.3491 19.6801 34.459 20.0837 35.5362 20.5644C38.9362 22.068 41.8909 24.4233 44.1148 27.4024L33.9318 32.6479C33.5289 32.0243 33.0339 31.4654 32.4635 30.9902C31.7042 30.3161 30.843 29.7666 29.9118 29.3621C28.1545 28.5672 26.2457 28.1632 24.317 28.178H24.0151C22.5216 28.1817 21.0363 28.399 19.6044 28.8233C17.9207 29.3162 16.3716 30.1869 15.0753 31.3691C13.9849 32.3681 13.1302 33.5972 12.5732 34.9672C12.0161 36.3372 11.7707 37.814 11.8546 39.2905C11.832 40.7791 12.1387 42.2542 12.7528 43.6103C13.3669 44.9665 14.2732 46.1701 15.4069 47.1351C16.7485 48.2718 18.3352 49.0824 20.0425 49.5032C21.4915 49.8681 22.9831 50.0354 24.4769 50.0005H24.7788C26.6971 49.9616 28.5855 49.5178 30.3203 48.698C31.2348 48.2616 32.0726 47.6797 32.801 46.9752C33.3504 46.4659 33.823 45.8796 34.2041 45.2346Z" fill="#FF5003"/>
</svg>
