<svg width="642" height="956" viewBox="0 0 642 956" fill="none" xmlns="http://www.w3.org/2000/svg">
<path d="M33.2204 178.422C-1.86611 77.312 93.5939 -24.3035 148.798 -64.0072C271.645 -110.655 558.511 -176.093 723.194 -64.6625C929.048 74.6258 978.003 514.925 733.732 755.683C489.461 996.44 332.471 917.433 281.577 840.02C230.684 762.606 395.37 660.302 368.454 433.11C340.076 193.587 77.0785 304.809 33.2204 178.422Z" fill="#FF5006" fillOpacity="0.21"/>
<path d="M54.833 139.794C31.886 35.2589 145.133 -66.7411 204.625 -99.6741C332.107 -131.545 624.679 -162.778 775.109 -32.7458C963.145 129.794 959.958 572.796 689.058 783.142C418.158 993.488 271.553 896.559 230.121 813.696C188.689 730.832 364.268 648.614 364.268 419.833C364.268 178.635 83.5167 270.464 54.833 139.794Z" fill="#FF5006" fillOpacity="0.21"/>
</svg>
