<svg width="152" height="46" viewBox="0 0 152 46" fill="none" xmlns="http://www.w3.org/2000/svg">
<path d="M140.662 20.5532C140.662 15.1555 136.272 10.766 130.875 10.766H110.322V46H99.5557V5.38298C99.5557 2.40766 101.963 0 104.939 0H130.875C142.228 0 151.428 9.2 151.428 20.5532V46H140.662V20.5532Z" fill="#F73196"/>
<path d="M94.1727 0H83.4067V46H94.1727V0Z" fill="#F73196"/>
<path d="M62.8536 46C71.2315 46 78.0238 39.2077 78.0238 30.8298V15.1702C78.0238 6.79234 71.2315 0 62.8536 0H20.5532C9.2 0 0 9.2 0 20.5532V46H10.766V20.5532C10.766 15.1555 15.1555 10.766 20.5532 10.766H62.8536C65.2808 10.766 67.2579 12.743 67.2579 15.1702V30.8298C67.2579 33.257 65.2808 35.234 62.8536 35.234H43.2791C40.8519 35.234 38.8749 33.257 38.8749 30.8298C38.8749 28.4026 40.8519 26.4255 43.2791 26.4255H62.3643V15.6596H43.2791C34.9013 15.6596 28.1089 22.4519 28.1089 30.8298C28.1089 39.2077 34.9013 46 43.2791 46H62.8536Z" fill="#F73196"/>
</svg>
