<svg width="153" height="80" viewBox="0 0 153 80" fill="none" xmlns="http://www.w3.org/2000/svg">
<path d="M0.606079 61.5646V19.8152H13.7494V61.5646H0.606079ZM13.7494 38.6282L8.25155 34.333C9.33966 29.4651 11.1723 25.6853 13.7494 22.9937C16.3265 20.302 19.9059 18.9562 24.4874 18.9562C26.4919 18.9562 28.2529 19.2568 29.7705 19.8582C31.2882 20.4595 32.6197 21.3901 33.7651 22.6501L25.9478 32.529C25.3751 31.8991 24.6592 31.4123 23.8002 31.0687C22.9411 30.725 21.9676 30.5532 20.8794 30.5532C18.7032 30.5532 16.9708 31.2261 15.6823 32.572C14.3937 33.9178 13.7494 35.9366 13.7494 38.6282Z" fill="white"/>
<path d="M38.7476 61.5646V19.8152H51.8909V61.5646H38.7476Z" fill="white"/>
<path d="M85.2217 62.4237C82.4155 62.4237 79.8384 61.8796 77.4904 60.7915C75.1423 59.7034 73.2238 58.2 71.7348 56.2815C70.2458 54.363 69.3867 52.1724 69.1577 49.7099V32.0995C69.3867 29.6369 70.2458 27.4034 71.7348 25.399C73.2238 23.3946 75.1423 21.8196 77.4904 20.6743C79.8384 19.5289 82.4155 18.9562 85.2217 18.9562C89.1733 18.9562 92.6811 19.9011 95.745 21.791C98.8089 23.6809 101.214 26.258 102.961 29.5224C104.708 32.7867 105.581 36.5093 105.581 40.6899C105.581 44.8706 104.708 48.5931 102.961 51.8575C101.214 55.1218 98.8089 57.6989 95.745 59.5888C92.6811 61.4787 89.1733 62.4237 85.2217 62.4237ZM82.8164 50.5689C84.7063 50.5689 86.3528 50.1394 87.7559 49.2803C89.159 48.4213 90.2614 47.2473 91.0632 45.7583C91.865 44.2693 92.2659 42.5798 92.2659 40.6899C92.2659 38.7428 91.865 37.0247 91.0632 35.5357C90.2614 34.0467 89.159 32.887 87.7559 32.0566C86.3528 31.2261 84.7349 30.8109 82.9023 30.8109C81.0697 30.8109 79.4518 31.2261 78.0487 32.0566C76.6456 32.887 75.5432 34.0467 74.7414 35.5357C73.9397 37.0247 73.5388 38.7428 73.5388 40.6899C73.5388 42.5798 73.9253 44.2693 74.6985 45.7583C75.4716 47.2473 76.574 48.4213 78.0058 49.2803C79.4375 50.1394 81.0411 50.5689 82.8164 50.5689ZM61.1686 79.175V19.8152H74.3119V30.5532L72.1643 40.6899L74.1401 50.8266V79.175H61.1686Z" fill="white"/>
<path d="M132.898 62.5095C128.374 62.5095 124.351 61.5789 120.829 59.7176C117.307 57.8564 114.544 55.2649 112.539 51.9433C110.535 48.6217 109.532 44.8706 109.532 40.6899C109.532 36.5092 110.52 32.7724 112.496 29.4794C114.472 26.1864 117.149 23.595 120.528 21.7051C123.907 19.8152 127.716 18.8702 131.953 18.8702C136.077 18.8702 139.713 19.7579 142.863 21.5333C146.013 23.3086 148.49 25.7712 150.294 28.921C152.098 32.0708 153 35.6788 153 39.7449C153 40.4894 152.957 41.2769 152.871 42.1073C152.785 42.9377 152.628 43.897 152.399 44.9851L116.405 45.071V36.0511L146.815 35.9652L141.145 39.7449C141.088 37.3396 140.716 35.3495 140.028 33.7746C139.341 32.1997 138.325 30.997 136.979 30.1666C135.633 29.3362 133.987 28.921 132.039 28.921C129.978 28.921 128.188 29.3935 126.67 30.3384C125.153 31.2834 123.979 32.6149 123.148 34.333C122.318 36.0511 121.903 38.1414 121.903 40.604C121.903 43.0666 122.347 45.1712 123.234 46.9179C124.122 48.6646 125.382 50.0105 127.014 50.9554C128.646 51.9004 130.579 52.3728 132.812 52.3728C134.874 52.3728 136.735 52.0149 138.396 51.299C140.057 50.5832 141.517 49.5094 142.777 48.0776L149.993 55.2936C147.932 57.6989 145.44 59.5029 142.52 60.7055C139.599 61.9082 136.392 62.5095 132.898 62.5095Z" fill="white"/>
<path d="M7.15868 14.3174C11.1123 14.3174 14.3174 11.1123 14.3174 7.15868C14.3174 3.20505 11.1123 0 7.15868 0C3.20505 0 0 3.20505 0 7.15868C0 11.1123 3.20505 14.3174 7.15868 14.3174Z" fill="white"/>
</svg>
